<svg id="Layer_1" data-name="Layer 1" xmlns="http://www.w3.org/2000/svg" viewBox="0 0 2051.578 390.559"><defs><style>.cls-1{fill:#1a1a1a;}.cls-1,.cls-2,.cls-3{stroke:#000;stroke-miterlimit:10;stroke-width:1.5px;}.cls-2{fill:#991f22;}.cls-3{fill:#fff;}</style></defs><title>full</title><polygon class="cls-1" points="190.006 389.809 0.93 389.809 85.332 0.75 274.408 0.75 190.006 389.809"/><polygon class="cls-2" points="398.202 389.809 209.127 389.809 293.529 0.75 482.604 0.75 398.202 389.809"/><polygon class="cls-3" points="606.399 389.809 417.323 389.809 501.725 0.75 690.801 0.75 606.399 389.809"/><path d="M716.921,231.542h48.928l2.976,73.259,34.627-73.259h48.9l-26.119,120.4h-30.47l19.919-91.82-43.4,91.82H744.7l-3.514-91.82-19.919,91.82H690.8Z"/><path d="M849.918,291.825q6.4-29.485,26.385-45.91t49.309-16.426q30.058,0,42.819,16.137t6.453,45.213q-4.578,21.108-14.613,34.618a69.5,69.5,0,0,1-25.092,21.024Q920.119,354,900.08,354q-20.369,0-32.306-6.488t-17.187-20.532Q845.337,312.933,849.918,291.825Zm37.168.164q-3.956,18.233,1.092,26.2t16.71,7.966a28.4,28.4,0,0,0,20.254-7.8q8.262-7.8,12.646-28.006,3.688-17-1.468-24.844t-16.9-7.843a28.156,28.156,0,0,0-19.8,7.966Q891.075,273.593,887.086,291.989Z"/><path d="M990.919,231.542H1104.01l-6.45,29.731h-37.943l-19.67,90.67h-37.2l19.67-90.67H984.469Z"/><path d="M1094.677,291.825q6.4-29.485,26.386-45.91t49.31-16.426q30.059,0,42.819,16.137t6.453,45.213q-4.579,21.108-14.613,34.618a69.516,69.516,0,0,1-25.093,21.024Q1164.881,354,1144.84,354q-20.37,0-32.306-6.488t-17.187-20.532Q1090.1,312.933,1094.677,291.825Zm37.17.164q-3.955,18.233,1.092,26.2t16.709,7.966a28.393,28.393,0,0,0,20.254-7.8q8.262-7.8,12.646-28.006,3.687-17-1.468-24.844t-16.9-7.843a28.156,28.156,0,0,0-19.8,7.966Q1135.835,273.593,1131.847,291.989Z"/><path d="M1218.512,351.943l26.12-120.4h62.007q17.247,0,25.721,2.957a20.713,20.713,0,0,1,12.323,10.963q3.848,8.008,1.354,19.506a40.946,40.946,0,0,1-8.024,17.288,45.866,45.866,0,0,1-14.308,11.785,55.127,55.127,0,0,1-14.1,4.765q6.166,2.221,8.723,4.439a27.314,27.314,0,0,1,4.577,6.33,35.758,35.758,0,0,1,3.588,7.48l10.449,34.888H1294.9L1283,315.149q-2.228-7.144-4.721-9.28a13.017,13.017,0,0,0-8.51-2.792h-3.285l-10.6,48.866Zm52.9-71.616H1287.1a61.833,61.833,0,0,0,10.212-1.643,12.916,12.916,0,0,0,6.857-3.778,14.031,14.031,0,0,0,3.854-6.982q1.264-5.827-1.753-8.951t-13.2-3.121h-16.344Z"/><path d="M1342.593,312.111l35.878-2.218q-.72,8.624,1.831,13.141,4.163,7.311,14.841,7.309,7.963,0,13.089-3.736t6.19-8.665a9.065,9.065,0,0,0-2.289-8.377q-3.3-3.7-17.539-6.982-23.28-5.5-31.734-14.619-8.535-9.115-5.469-23.242a39.408,39.408,0,0,1,9.183-17.535,48.38,48.38,0,0,1,18.994-12.977q11.824-4.721,30.633-4.721,23.077,0,33.33,8.582t8.489,27.308l-35.514,2.053q.367-8.131-3.307-11.826t-11.559-3.695q-6.487,0-10.37,2.75a11.016,11.016,0,0,0-4.737,6.694,5.445,5.445,0,0,0,1.588,5.175q2.109,2.382,11.521,4.434,23.253,5.256,32.639,10.636t12.463,13.346q3.077,7.965.938,17.821a47.556,47.556,0,0,1-11.039,21.355,54.444,54.444,0,0,1-21.12,14.824Q1406.929,354,1389.436,354q-30.717,0-39.977-11.827T1342.593,312.111Z"/><path d="M1479.454,231.542H1541.3q20.2,0,28.18,9.609t4.128,27.349q-3.956,18.232-17.146,28.5t-35.7,10.266H1500.4l-9.692,44.679h-37.368Zm26.233,51.331h9.116q10.759,0,15.923-3.738a15.621,15.621,0,0,0,6.428-9.567q1.23-5.667-1.693-9.61t-13.353-3.942h-10.6Z"/><path d="M1574.918,291.825q6.4-29.485,26.385-45.91t49.31-16.426q30.058,0,42.819,16.137t6.453,45.213q-4.578,21.108-14.613,34.618a69.507,69.507,0,0,1-25.093,21.024q-15.059,7.517-35.1,7.515-20.37,0-32.307-6.488t-17.187-20.532Q1570.338,312.933,1574.918,291.825Zm37.169.164q-3.956,18.233,1.092,26.2t16.709,7.966a28.393,28.393,0,0,0,20.254-7.8q8.264-7.8,12.646-28.006,3.689-17-1.468-24.844t-16.9-7.843a28.154,28.154,0,0,0-19.8,7.966Q1616.075,273.593,1612.087,291.989Z"/><path d="M1698.753,351.943l26.119-120.4h62.007q17.247,0,25.722,2.957a20.711,20.711,0,0,1,12.322,10.963q3.848,8.008,1.354,19.506a40.946,40.946,0,0,1-8.024,17.288,45.855,45.855,0,0,1-14.308,11.785,55.114,55.114,0,0,1-14.1,4.765q6.166,2.221,8.723,4.439a27.314,27.314,0,0,1,4.577,6.33,35.758,35.758,0,0,1,3.588,7.48l10.449,34.888h-42.039l-11.9-36.794q-2.226-7.144-4.72-9.28a13.021,13.021,0,0,0-8.511-2.792h-3.285l-10.6,48.866Zm52.9-71.616h15.686a61.817,61.817,0,0,0,10.212-1.643,12.916,12.916,0,0,0,6.857-3.778,14.04,14.04,0,0,0,3.855-6.982q1.263-5.827-1.754-8.951t-13.2-3.121h-16.344Z"/><path d="M1838.342,231.542h113.091l-6.45,29.731H1907.04l-19.67,90.67h-37.2l19.67-90.67h-37.944Z"/><path d="M1935.893,312.111l35.878-2.218q-.72,8.624,1.831,13.141,4.162,7.311,14.84,7.309,7.965,0,13.089-3.736t6.191-8.665a9.067,9.067,0,0,0-2.289-8.377q-3.3-3.7-17.539-6.982-23.28-5.5-31.734-14.619-8.535-9.115-5.469-23.242a39.408,39.408,0,0,1,9.183-17.535,48.38,48.38,0,0,1,18.994-12.977q11.825-4.721,30.633-4.721,23.076,0,33.33,8.582t8.489,27.308l-35.514,2.053q.366-8.131-3.307-11.826t-11.559-3.695q-6.488,0-10.37,2.75a11.012,11.012,0,0,0-4.737,6.694,5.445,5.445,0,0,0,1.588,5.175q2.109,2.382,11.521,4.434,23.251,5.256,32.639,10.636t12.463,13.346q3.075,7.965.938,17.821a47.556,47.556,0,0,1-11.039,21.355,54.451,54.451,0,0,1-21.12,14.824q-12.6,5.049-30.087,5.05-30.719,0-39.978-11.827T1935.893,312.111Z"/><path d="M759.219,36.564h48.928l2.977,73.259,34.627-73.259h48.9l-26.12,120.4H838.06l19.92-91.82-43.4,91.82H787l-3.515-91.82-19.919,91.82H733.1Z"/><path d="M911.453,36.564h37.286l-26.119,120.4H885.334Z"/><path d="M958.562,36.564h113.092l-6.45,29.73h-37.943l-19.67,90.67H970.386l19.67-90.67H952.112Z"/></svg>