<svg id="Layer_1" data-name="Layer 1" xmlns="http://www.w3.org/2000/svg" viewBox="0 0 1360.778 317.432"><defs><style>.cls-1{fill:#fff;stroke:#000;stroke-miterlimit:10;stroke-width:1.5px;}</style></defs><title>Text</title><polygon class="cls-1" points="-84.402 353.246 -273.478 353.246 -189.076 -35.814 0 -35.814 -84.402 353.246"/><path d="M26.12,194.979H75.048l2.976,73.258,34.627-73.258h48.9l-26.119,120.4h-30.47l19.919-91.82-43.4,91.82H53.9l-3.514-91.82L30.47,315.379H0Z"/><path d="M159.117,255.261q6.4-29.485,26.385-45.91t49.309-16.426q30.059,0,42.819,16.138t6.453,45.212q-4.578,21.108-14.613,34.618a69.487,69.487,0,0,1-25.092,21.024q-15.06,7.517-35.1,7.515-20.369,0-32.306-6.488t-17.187-20.532Q154.536,276.369,159.117,255.261Zm37.168.164q-3.956,18.232,1.092,26.2t16.71,7.966a28.393,28.393,0,0,0,20.254-7.8q8.262-7.8,12.646-28.006,3.689-17-1.467-24.844t-16.9-7.843a28.152,28.152,0,0,0-19.8,7.967Q200.276,237.028,196.285,255.425Z"/><path d="M300.118,194.979H413.209l-6.45,29.73H368.816l-19.67,90.67h-37.2l19.67-90.67H293.668Z"/><path d="M403.876,255.261q6.4-29.485,26.386-45.91t49.31-16.426q30.058,0,42.819,16.138t6.453,45.212q-4.578,21.108-14.613,34.618a69.507,69.507,0,0,1-25.093,21.024q-15.058,7.517-35.1,7.515-20.372,0-32.307-6.488t-17.187-20.532Q399.3,276.369,403.876,255.261Zm37.17.164q-3.955,18.232,1.092,26.2t16.709,7.966a28.393,28.393,0,0,0,20.254-7.8q8.262-7.8,12.646-28.006,3.689-17-1.468-24.844t-16.9-7.843a28.148,28.148,0,0,0-19.8,7.967Q445.034,237.028,441.046,255.425Z"/><path d="M527.711,315.379l26.12-120.4h62.007q17.247,0,25.722,2.957A20.712,20.712,0,0,1,653.882,208.9q3.848,8.008,1.354,19.506a40.946,40.946,0,0,1-8.024,17.288A45.872,45.872,0,0,1,632.9,257.478a55.116,55.116,0,0,1-14.1,4.764q6.166,2.221,8.723,4.439a27.314,27.314,0,0,1,4.577,6.33,35.758,35.758,0,0,1,3.588,7.48l10.449,34.888H604.1l-11.9-36.794q-2.228-7.144-4.72-9.28a13.021,13.021,0,0,0-8.511-2.792h-3.285l-10.6,48.866Zm52.9-71.616H596.3a61.817,61.817,0,0,0,10.212-1.643,12.916,12.916,0,0,0,6.857-3.778,14.04,14.04,0,0,0,3.855-6.982q1.263-5.828-1.754-8.951t-13.2-3.121H585.925Z"/><path d="M651.792,275.547l35.878-2.218q-.72,8.623,1.831,13.141,4.162,7.311,14.841,7.309,7.963,0,13.089-3.736t6.191-8.665A9.07,9.07,0,0,0,721.333,273q-3.306-3.7-17.54-6.981-23.28-5.5-31.733-14.62-8.536-9.115-5.47-23.242a39.408,39.408,0,0,1,9.183-17.535,48.377,48.377,0,0,1,19-12.977q11.823-4.72,30.632-4.721,23.077,0,33.33,8.582t8.489,27.308l-35.513,2.053q.366-8.131-3.308-11.826t-11.559-3.695q-6.488,0-10.37,2.75a11.016,11.016,0,0,0-4.737,6.694,5.445,5.445,0,0,0,1.588,5.175q2.11,2.382,11.521,4.434,23.253,5.256,32.639,10.636t12.463,13.346q3.077,7.965.938,17.821a47.546,47.546,0,0,1-11.039,21.355,54.444,54.444,0,0,1-21.12,14.824q-12.594,5.049-30.087,5.05-30.717,0-39.977-11.827T651.792,275.547Z"/><path d="M788.653,194.979H850.5q20.2,0,28.18,9.608t4.128,27.35q-3.955,18.231-17.146,28.5t-35.7,10.265H809.594L799.9,315.379H762.534Zm26.233,51.33H824q10.76,0,15.923-3.738A15.621,15.621,0,0,0,846.353,233q1.23-5.667-1.693-9.609t-13.353-3.943h-10.6Z"/><path d="M884.117,255.261q6.4-29.485,26.385-45.91t49.31-16.426q30.058,0,42.819,16.138t6.453,45.212q-4.578,21.108-14.613,34.618a69.5,69.5,0,0,1-25.093,21.024q-15.058,7.517-35.1,7.515-20.37,0-32.307-6.488t-17.187-20.532Q879.538,276.369,884.117,255.261Zm37.169.164q-3.955,18.232,1.092,26.2t16.709,7.966a28.391,28.391,0,0,0,20.254-7.8q8.264-7.8,12.646-28.006,3.689-17-1.467-24.844t-16.9-7.843a28.152,28.152,0,0,0-19.8,7.967Q925.275,237.028,921.286,255.425Z"/><path d="M1007.952,315.379l26.119-120.4h62.007q17.247,0,25.722,2.957a20.714,20.714,0,0,1,12.323,10.962q3.846,8.008,1.353,19.506a40.946,40.946,0,0,1-8.024,17.288,45.879,45.879,0,0,1-14.307,11.786,55.138,55.138,0,0,1-14.1,4.764q6.166,2.221,8.723,4.439a27.314,27.314,0,0,1,4.577,6.33,35.706,35.706,0,0,1,3.588,7.48l10.449,34.888h-42.039l-11.9-36.794q-2.228-7.144-4.721-9.28a13.018,13.018,0,0,0-8.511-2.792h-3.285l-10.6,48.866Zm52.9-71.616h15.686a61.817,61.817,0,0,0,10.212-1.643,12.916,12.916,0,0,0,6.857-3.778,14.033,14.033,0,0,0,3.855-6.982q1.265-5.828-1.754-8.951t-13.2-3.121h-16.343Z"/><path d="M1147.541,194.979h113.091l-6.45,29.73h-37.943l-19.67,90.67h-37.2l19.67-90.67h-37.944Z"/><path d="M1245.092,275.547l35.878-2.218q-.72,8.623,1.831,13.141,4.163,7.311,14.841,7.309,7.964,0,13.088-3.736t6.191-8.665a9.067,9.067,0,0,0-2.289-8.377q-3.3-3.7-17.539-6.981-23.28-5.5-31.734-14.62-8.535-9.115-5.469-23.242a39.408,39.408,0,0,1,9.183-17.535,48.38,48.38,0,0,1,18.994-12.977q11.825-4.72,30.633-4.721,23.076,0,33.33,8.582t8.489,27.308l-35.514,2.053q.367-8.131-3.307-11.826t-11.559-3.695q-6.487,0-10.37,2.75a11.016,11.016,0,0,0-4.737,6.694,5.445,5.445,0,0,0,1.588,5.175q2.109,2.382,11.521,4.434,23.253,5.256,32.639,10.636t12.463,13.346q3.075,7.965.938,17.821a47.556,47.556,0,0,1-11.039,21.355,54.451,54.451,0,0,1-21.12,14.824q-12.6,5.049-30.087,5.05-30.717,0-39.977-11.827T1245.092,275.547Z"/><path d="M68.418,0h48.928l2.977,73.259L154.95,0h48.9l-26.12,120.4h-30.47l19.92-91.82-43.4,91.82H96.2L92.688,28.58,72.768,120.4H42.3Z"/><path d="M220.652,0h37.286L231.819,120.4H194.533Z"/><path d="M267.761,0H380.853L374.4,29.73H336.46L316.79,120.4H279.585l19.67-90.67H261.312Z"/></svg>